<?xml version="1.0" encoding="UTF-8"?>
<svg width="12px" height="10px" viewBox="0 0 12 10" version="1.1" xmlns="http://www.w3.org/2000/svg" xmlns:xlink="http://www.w3.org/1999/xlink">
    <!-- Generator: Sketch 48.2 (47327) - http://www.bohemiancoding.com/sketch -->
    <title>cat-china</title>
    <desc>Created with Sketch.</desc>
    <defs></defs>
    <g id="Page-1" stroke="none" stroke-width="1" fill="none" fill-rule="evenodd">
        <g id="cat-china" fill="#111111" fill-rule="nonzero">
            <path d="M8.6130064,0.953313006 C8.6130064,0.953313006 9.91572281,-0.529684861 10.7334755,0.288067804 C12.0564819,1.6110742 10.5171045,2.71072452 10.5171045,2.71072452" id="Fill-1"></path>
            <path d="M3.63911514,0.953313006 C3.63911514,0.953313006 2.33623241,-0.529684861 1.51864606,0.288067804 C0.195639659,1.6110742 1.73485075,2.71072452 1.73485075,2.71072452" id="Fill-4"></path>
            <path d="M8.14925373,4.58547032 C7.51522388,4.29111595 6.76119403,3.39634452 7.11940299,2.75604601 C7.11940299,2.75604601 7.65671642,2.11574751 8.46268657,2.75604601 C9.26865672,3.39634452 9.67164179,3.48781574 9.67164179,4.03664303 C9.67164179,4.58547032 8.91044776,4.93909804 8.14925373,4.58547032 M7.63724172,7.8763778 C7.6306139,7.8763778 7.62352898,7.87614435 7.61667261,7.87614435 C6.95206178,7.87614435 6.41817908,7.55982897 6.07170383,6.98229078 C5.72385731,7.57150113 5.19363134,7.87871223 4.4979383,7.8763778 C4.0826708,7.8763778 3.24047998,7.64410193 2.91457384,6.75164901 L3.34309699,6.58870574 C3.64226328,7.40949163 4.48902502,7.40855785 4.51530777,7.40925818 C5.12163945,7.40925818 5.55701897,7.09527724 5.81367576,6.47805372 C5.52685094,6.34429083 5.06655994,6.08330146 5.06655994,5.7849612 C5.06655994,5.35192428 5.41372083,4.99709079 5.8379016,4.99709079 L6.23785654,4.99709079 C6.66203732,4.99709079 7.0091982,5.35192428 7.0091982,5.7849612 C7.0091982,6.06485946 6.60444381,6.31137536 6.31761898,6.45120776 C6.57176177,7.08453885 7.00828402,7.40925818 7.62078643,7.40925818 C7.65918211,7.41299327 8.49748765,7.40809097 8.7964254,6.5884723 L9.22494854,6.75188246 C8.89927095,7.64410193 8.05685159,7.8763778 7.63724172,7.8763778 M2.27480597,4.03664303 C2.27480597,3.48781574 2.67779104,3.39634452 3.48376119,2.75604601 C4.28973134,2.11574751 4.82704478,2.75604601 4.82704478,2.75604601 C5.18525373,3.39634452 4.43122388,4.29111595 3.79719403,4.58547032 C3.036,4.93909804 2.27480597,4.58547032 2.27480597,4.03664303 M10.5132537,2.58536072 C9.37844776,1.68107629 8.73134328,0.162105288 5.98477612,0.162105288 C3.40298507,0.162105288 2.6079403,1.59362981 1.46185075,2.58536072 C0.433432836,3.47574154 0,4.25361275 0,5.55890699 C0,8.31895945 2.52161194,9.33008226 5.98477612,9.33008226 C9.4481194,9.33008226 11.9104478,8.31895945 11.9104478,5.55890699 C11.9104478,4.17897224 11.6480597,3.4898281 10.5132537,2.58536072" id="Fill-7"></path>
        </g>
    </g>
</svg>