<?xml version="1.0" encoding="UTF-8"?>
<svg width="9px" height="12px" viewBox="0 0 9 12" version="1.1" xmlns="http://www.w3.org/2000/svg" xmlns:xlink="http://www.w3.org/1999/xlink">
    <!-- Generator: Sketch 48.2 (47327) - http://www.bohemiancoding.com/sketch -->
    <title>cat-appropriation</title>
    <desc>Created with Sketch.</desc>
    <defs></defs>
    <g id="Page-1" stroke="none" stroke-width="1" fill="none" fill-rule="evenodd">
        <g id="cat-appropriation" fill="#111111" fill-rule="nonzero">
            <path d="M8.5714286,7.77391304 C8.5714286,9.3652174 7.173913,10.3434783 5.23291925,10.5391304 L5.23291925,12 L3.66459627,12 L3.66459627,10.5913043 C2.17391304,10.5521739 1.00931677,10.226087 0,9.3652174 L1.39751553,8.1913043 C2.04968944,8.7391304 2.93478261,8.9478261 3.86645963,8.973913 L3.86645963,6.61304348 L3.36956522,6.56086957 C2.4378882,6.45652174 1.69254658,6.16956522 1.22670807,5.77826087 C0.69875776,5.33478261 0.43478261,4.74782609 0.43478261,3.96521739 C0.43478261,2.46521739 1.64596273,1.35652174 3.66459627,1.17391304 L3.66459627,0 L5.23291925,0 L5.23291925,1.16086957 C6.4906832,1.22608696 7.4534161,1.55217391 8.2919255,2.23043478 L6.9254658,3.36521739 C6.4130435,2.94782609 5.65217391,2.77826087 5.01552795,2.73913043 L5.01552795,5.00869565 L5.60559006,5.08695652 C6.6149068,5.2173913 7.2515528,5.45217391 7.7173913,5.8173913 C8.3074534,6.28695652 8.5714286,6.95217391 8.5714286,7.77391304 Z M6.4596273,7.82608696 C6.4596273,7.5 6.3509317,7.22608696 6.1180124,7.04347826 C5.86956522,6.84782609 5.59006211,6.76956522 5.01552795,6.70434783 L5.01552795,8.9478261 C5.94720497,8.8565217 6.4596273,8.4652174 6.4596273,7.82608696 Z M3.86645963,4.93043478 L3.86645963,2.75217391 C2.96583851,2.85652174 2.51552795,3.32608696 2.51552795,3.9 C2.51552795,4.13478261 2.60869565,4.3826087 2.84161491,4.56521739 C3.09006211,4.76086957 3.43167702,4.87826087 3.86645963,4.93043478 Z" id="$"></path>
        </g>
    </g>
</svg>