<?xml version="1.0" encoding="UTF-8"?>
<svg width="12px" height="12px" viewBox="0 0 12 12" version="1.1" xmlns="http://www.w3.org/2000/svg" xmlns:xlink="http://www.w3.org/1999/xlink">
    <!-- Generator: Sketch 48.2 (47327) - http://www.bohemiancoding.com/sketch -->
    <title>cat-international</title>
    <desc>Created with Sketch.</desc>
    <defs></defs>
    <g id="Page-1" stroke="none" stroke-width="1" fill="none" fill-rule="evenodd">
        <g id="cat-international" fill="#111111" fill-rule="nonzero">
            <path d="M5.53846154,9.23076923 C5.02728037,9.27414122 4.5145184,9.37208869 4,9.52633101 C4.39835949,10.1431894 4.91065307,11.0178905 5.53846154,11.6399623 L5.53846154,9.23076923 Z" id="Fill-1"></path>
            <path d="M4.92307692,0 C3.88380163,0.189674148 2.93707969,0.629928069 2.15384615,1.25319366 C2.57300783,1.48667505 2.99143252,1.68430879 3.40924305,1.84615385 C3.82128052,1.22896113 4.32599417,0.613537204 4.92307692,0" id="Fill-3"></path>
            <path d="M5.53846154,0.615384615 C5.05594406,1.15347773 4.64605473,1.68906944 4.30769231,2.22210157 C4.71846264,2.34437959 5.12868234,2.42401737 5.53846154,2.46153846 L5.53846154,0.615384615 Z" id="Fill-5"></path>
            <path d="M9.90037173,6.46153846 C9.85662947,7.35845107 9.632852,8.25068489 9.23076923,9.13799366 C9.7084742,9.33136331 10.1850053,9.56665743 10.660239,9.84615385 C11.4173878,8.904608 11.903557,7.73737187 12,6.46153846 L9.90037173,6.46153846 Z" id="Fill-7"></path>
            <path d="M8.58787403,1.84615385 C9.00610053,1.70100695 9.42538942,1.52005116 9.84615385,1.30160002 C9.07509669,0.654172903 8.12567649,0.195178166 7.07692308,0 C7.6781163,0.613473308 8.18233715,1.22891414 8.58787403,1.84615385" id="Fill-9"></path>
            <path d="M9.23076923,2.83806066 C9.68175164,3.73470827 9.94492102,4.63491979 10.0186593,5.53846154 L12,5.53846154 C11.9163221,4.25258696 11.4222294,3.08023205 10.6486709,2.15384615 C10.1766534,2.42704119 9.70394247,2.65542429 9.23076923,2.83806066" id="Fill-11"></path>
            <path d="M7.38461538,11.6923077 C8.43698847,11.4626863 9.38485991,11.000401 10.1538462,10.3710581 C9.74099548,10.165223 9.32883646,9.98970179 8.91724333,9.84615385 C8.51539614,10.4643781 8.00426865,11.0797811 7.38461538,11.6923077" id="Fill-13"></path>
            <path d="M6.46153846,8.29868183 C7.17770165,8.31872279 7.89205855,8.42477285 8.6039863,8.61538462 C8.97739022,7.89418852 9.18573653,7.17638825 9.23076923,6.46153846 L6.46153846,6.46153846 L6.46153846,8.29868183 Z" id="Fill-15"></path>
            <path d="M6.46153846,5.53846154 L9.23076923,5.53846154 C9.14835911,4.72357851 8.87618636,3.90320348 8.41318562,3.07692308 C7.76324237,3.24540349 7.11260976,3.33988953 6.46153846,3.36073551 L6.46153846,5.53846154 Z" id="Fill-17"></path>
            <path d="M6.46153846,11.6923077 C7.09649365,10.957043 7.60881178,10.2251923 8,9.4964453 C7.486398,9.33896395 6.97374495,9.25088116 6.46153846,9.23076923 L6.46153846,11.6923077 Z" id="Fill-19"></path>
            <path d="M6.46153846,2.46153846 C6.97298605,2.44456481 7.48574118,2.38160904 8,2.2734659 C7.58276128,1.72349701 7.07026766,1.17086001 6.46153846,0.615384615 L6.46153846,2.46153846 Z" id="Fill-21"></path>
            <path d="M5.53846154,3.41069876 C4.97420317,3.36645861 4.41123808,3.25497112 3.84990362,3.07692308 C3.41008011,3.90329262 3.15311342,4.72371005 3.07692308,5.53846154 L5.53846154,5.53846154 L5.53846154,3.41069876 Z" id="Fill-23"></path>
            <path d="M5.56792341,6.46153846 L3.07692308,6.46153846 C3.12413623,7.2783439 3.34938888,7.90169985 3.75582437,8.7260219 C4.4518255,8.49801793 4.87047634,8.3583169 5.56792341,8.30435617 L5.56792341,6.46153846 Z" id="Fill-25"></path>
            <path d="M3.25311859,9.84615385 C2.88772351,10.0047794 2.52127995,10.1935415 2.15384615,10.4116808 C2.84869677,11.0208357 3.68882004,11.4672767 4.61538462,11.6923077 C4.0707578,11.0796486 3.61659146,10.4641861 3.25311859,9.84615385" id="Fill-27"></path>
            <path d="M2.76923077,9.14518054 C2.34377688,8.25580591 2.10830705,7.36112087 2.06384142,6.46153846 L0,6.46153846 C0.0985924884,7.74860334 0.616518092,8.92049145 1.4194798,9.84615385 C1.86881672,9.57402515 2.31875371,9.34048539 2.76923077,9.14518054" id="Fill-29"></path>
            <path d="M2.16807502,5.53846154 C2.25081119,4.55406277 2.55457291,3.57352631 3.07692308,2.59703609 C2.57863139,2.39245623 2.08158948,2.1420191 1.58598484,1.84615385 C0.678011645,2.83895161 0.0948591407,4.12320056 0,5.53846154 L2.16807502,5.53846154 Z" id="Fill-31"></path>
        </g>
    </g>
</svg>