<?xml version="1.0" encoding="UTF-8"?>
<svg width="12px" height="10px" viewBox="0 0 12 10" version="1.1" xmlns="http://www.w3.org/2000/svg" xmlns:xlink="http://www.w3.org/1999/xlink">
    <!-- Generator: Sketch 48.2 (47327) - http://www.bohemiancoding.com/sketch -->
    <title>cat-arms</title>
    <desc>Created with Sketch.</desc>
    <defs></defs>
    <g id="Page-1" stroke="none" stroke-width="1" fill="none" fill-rule="evenodd">
        <g id="cat-arms" fill="#111111" fill-rule="nonzero">
            <path d="M5.40171507,7.90077 L5.36893483,7.6548691 L0,7.7747287 L0,7.1875789 L5.01296704,4.59560288 L4.97978635,4.30087686 L5.31037991,3.21930987 L5.47567669,1.39603835 C5.59358518,0.60796745 5.96128618,0 5.96128618,0 C5.96128618,0 6.32914781,0.60796745 6.44721694,1.39603835 L6.61251372,3.21930987 L6.94294664,4.30087686 L6.91268786,4.56978637 L12,7.1875789 L12,7.7747287 L6.55161164,7.6722097 L6.52469283,7.8740473 L8.6375197,9.1646165 L8.6375197,9.4850807 L6.3098315,9.4850807 L6.28192016,9.6943603 L5.97686809,10 L5.64081283,9.6943603 L5.61291444,9.4850807 L3.37340366,9.4850807 L3.37340366,9.1647742 L5.40171507,7.90077 Z" id="Combined-Shape"></path>
        </g>
    </g>
</svg>