<?xml version="1.0" encoding="UTF-8"?>
<svg width="12px" height="10px" viewBox="0 0 12 10" version="1.1" xmlns="http://www.w3.org/2000/svg" xmlns:xlink="http://www.w3.org/1999/xlink">
    <!-- Generator: Sketch 48.2 (47327) - http://www.bohemiancoding.com/sketch -->
    <title>cat-democracy</title>
    <desc>Created with Sketch.</desc>
    <defs></defs>
    <g id="Page-1" stroke="none" stroke-width="1" fill="none" fill-rule="evenodd">
        <g id="cat-democracy" fill="#111111" fill-rule="nonzero">
            <path d="M1.92150291,8.48016671 C0.784056896,7.98893571 0,6.95210996 0,5.75250528 C0,4.14083039 1.41522715,2.8229724 3.20129738,2.72727273 C2.77131686,3.28650652 2.51985251,3.96278994 2.51985251,4.69128015 C2.51985251,6.3525655 3.82758059,7.74235196 5.57791737,8.09164451 C4.98861398,8.52374917 4.233231,8.78330356 3.40964807,8.78330356 C3.31750703,8.78330356 3.22621963,8.78005478 3.13592294,8.77367907 C2.42700638,9.39407993 1.68472904,9.58743349 0.909090909,9.35373974 C1.38072308,9.20609808 1.7269526,9.08906151 1.92150291,8.48016671 Z" id="Combined-Shape"></path>
            <path d="M10.443072,6.35588951 C10.6971557,7.24067431 11.1684095,7.40051341 11.8181818,7.60392081 C10.8842037,7.88532117 9.98650429,7.70232135 9.12508369,7.05492135 C8.68894605,7.19585803 8.21820838,7.27272727 7.72727273,7.27272727 C5.46792602,7.27272727 3.63636364,5.64467182 3.63636364,3.63636364 C3.63636364,1.62805546 5.46792602,0 7.72727273,0 C9.98661943,0 11.8181818,1.62805546 11.8181818,3.63636364 C11.8181818,4.71824617 11.2866598,5.68977883 10.443072,6.35588951 Z" id="Combined-Shape"></path>
        </g>
    </g>
</svg>