<?xml version="1.0" encoding="UTF-8"?>
<svg width="15px" height="11px" viewBox="0 0 15 11" version="1.1" xmlns="http://www.w3.org/2000/svg" xmlns:xlink="http://www.w3.org/1999/xlink">
    <!-- Generator: Sketch 48.2 (47327) - http://www.bohemiancoding.com/sketch -->
    <title>cat-defense</title>
    <desc>Created with Sketch.</desc>
    <defs></defs>
    <g id="Page-1" stroke="none" stroke-width="1" fill="none" fill-rule="evenodd">
        <g id="cat-defense" fill="#111111" fill-rule="nonzero">
            <path d="M12.5264531,0.868372405 C11.5761768,1.73483233 9.98993551,2.0204205 9.94355,2.02292782 C9.89179164,2.02113688 9.12240102,1.97636321 8.31146043,1.7591214 C7.60475294,1.57017654 6.52570766,1.40773769 5.31592328,2.1812475 C4.50104262,2.70241293 4.50032624,3.23844323 4.49978895,3.62976504 C4.49960986,3.80115862 4.49943076,3.9492699 4.42277825,4.06442776 C4.26248854,4.3042355 4.19371619,4.706303 4.25317562,4.7765081 C4.37316903,4.84617592 5.01486517,5.17320275 5.50379357,4.49121032 C5.76025711,4.1335583 5.81917925,3.90198891 5.86646024,3.71590957 C5.91624856,3.52033821 5.96317135,3.33569162 6.22160494,3.19223681 C6.63710453,2.9613838 7.61693137,2.9547573 7.72725368,2.9547573 C7.77310191,2.9547573 7.81715919,2.97212948 7.8502917,3.00382923 L11.2864017,6.25815816 C11.4230509,5.84247947 11.7622562,5.12198168 12.5264531,4.85638431 C13.3610341,4.56607188 14.3207348,4.11421608 14.5843621,4.06442776 L12.5264531,0.868372405 Z" id="Fill-1"></path>
            <path d="M4.6915456,8.00465338 C4.7382893,7.91546425 4.75906428,7.81445486 4.74957226,7.71093816 C4.73667745,7.56909519 4.67005424,7.4414007 4.56152288,7.35131609 L4.53018132,7.32498918 C4.43436568,7.24529206 4.31580502,7.20248844 4.19187152,7.20248844 C4.17539481,7.20248844 4.1589181,7.20320482 4.14244139,7.20481667 C4.01725423,7.21645782 3.90478279,7.27143988 3.81774279,7.35847988 L3.36051414,7.90668861 C3.35138032,7.91815067 3.33956007,7.92638902 3.32970986,7.9371347 C3.14667513,8.16189849 3.1778376,8.49358178 3.40116863,8.67966113 L3.43268929,8.70580895 L3.43268929,8.70598804 C3.54086246,8.79607265 3.67876534,8.83977175 3.82042921,8.82598146 C3.94203448,8.81487759 4.0516404,8.76222376 4.13778493,8.67984022 C4.16249999,8.63578294 4.19025967,8.5935166 4.22321308,8.55393668 L4.63477259,8.06035182 C4.65214477,8.03939775 4.67274066,8.02327923 4.6915456,8.00465338" id="Fill-4"></path>
            <path d="M3.54299368,7.1282358 L3.59045377,7.07146279 C3.78512965,6.83792336 3.7534299,6.48940517 3.51971138,6.29490838 C3.42049294,6.21198756 3.29745492,6.16775118 3.16850677,6.16775118 C3.15149277,6.16775118 3.13429969,6.16864665 3.1171066,6.17007941 C2.9698908,6.18351151 2.83718166,6.25282114 2.74333606,6.36547167 L2.23828914,6.97134888 C2.14426445,7.08382032 2.10002807,7.22691695 2.11363927,7.37413275 C2.12689227,7.52134856 2.1962019,7.65423679 2.30885244,7.74790329 L2.30885244,7.74808239 C2.42114478,7.84156979 2.5644205,7.88670165 2.71145721,7.87255317 C2.84416635,7.86073292 2.96326429,7.8012735 3.05424438,7.70778609 C3.05567714,7.70617424 3.05657261,7.70438329 3.05782627,7.70259234 L3.50735385,7.16333835 C3.51809953,7.15044353 3.53171072,7.14041423 3.54299368,7.1282358" id="Fill-8"></path>
            <path d="M7.62230421,3.77076827 C7.33152677,3.71273838 7.22093269,3.59697738 6.80475919,3.83302413 C6.68253362,3.90234845 6.46142052,4.23239681 6.41772142,4.40486496 C6.36864949,4.59721261 6.24517585,4.77206385 5.88766119,5.15973801 C5.07036202,6.04598356 3.99689117,5.39501148 3.89229989,5.3339402 C3.83069133,5.29776308 3.50168461,5.15973801 3.44944502,4.74029953 C3.41210064,4.44045657 3.59102997,3.94448132 3.73233565,3.73261234 C3.74899145,3.70359901 3.73215656,3.34627186 3.73233565,3.25905277 C3.73287294,2.86002988 3.43487401,2.59629935 4.27357426,1.99454132 L3.44944502,1.85807456 C3.38712008,1.85807456 2.01265053,0.999874643 1.9802344,0.954921885 L-0.000143275722,4.45404818 C0.651223974,4.59875666 1.12331748,4.94351386 1.47398481,5.20266382 C1.53684703,5.24940753 1.59684374,5.29364391 1.65415403,5.3339402 C1.84805384,5.47076852 2.07354851,5.6795159 2.33063805,5.96018235 C2.48573401,5.77428211 3.34227375,5.35753824 3.81111007,5.70689785 C4.27994638,6.05625745 4.35004936,6.31400259 4.30348475,6.61882168 C4.31960326,6.61649345 4.73847336,6.37643887 5.10016607,6.73636075 C5.46185878,7.09628263 5.42918137,7.30299975 5.27102382,7.61184416 C5.50015305,7.50549293 5.7481804,7.46592518 6.0105681,7.67005085 C6.2729558,7.87417652 6.25558361,8.10315954 6.2729558,8.31771493 C6.29470138,8.31141795 6.68382311,8.18454954 7.06252612,8.51621428 C7.31900181,8.74083343 7.37858298,9.03682084 7.24126961,9.40417653 C7.35893479,9.4790381 7.54529351,9.71002078 7.62230421,9.74655609 C8.05213138,9.95144037 8.73556775,9.82208245 9.08730804,9.64747243 C9.43904833,9.47286241 9.55038143,9.00322432 9.54393402,8.853143 L9.71520432,8.70897892 C9.81460185,8.72044098 10.1036606,8.73673859 10.2660995,8.57447884 C10.4023905,8.43800871 10.4036442,8.18960443 10.386272,8.05098517 L10.5799822,7.87417652 C10.7094676,7.87113191 10.9092465,7.83209155 11.0683448,7.67005085 C11.2274432,7.50801014 11.2460109,7.34998116 11.1808204,7.25792651 C11.1771191,7.25255367 9.99094707,6.09016759 7.62230421,3.77076827 Z" id="Fill-10"></path>
            <path d="M6.46312945,9.15851746 C6.38164138,9.09081968 6.27776648,9.05894084 6.17066788,9.06825376 C6.06374837,9.07810396 5.96721635,9.12842956 5.89933948,9.21009672 L5.8617296,9.25540767 C5.84382014,9.28263006 5.82805981,9.31110611 5.80674755,9.33653755 L5.48473536,9.72302381 C5.40020268,9.88635813 5.43673799,10.092317 5.58359561,10.2144595 L5.60920614,10.2363091 C5.77880878,10.3777939 6.03222771,10.3546906 6.17353339,10.1847298 L6.35925455,9.96193607 C6.35961274,9.96068241 6.35907545,9.95960784 6.35943364,9.95817508 C6.3742985,9.9074913 6.40993833,9.86970233 6.45399562,9.84839006 L6.54049833,9.74451516 C6.6085543,9.66266891 6.64061225,9.55879401 6.63094113,9.4518745 C6.62127002,9.3447759 6.57094443,9.24842298 6.48927726,9.18036701 L6.46312945,9.15851746 Z" id="Fill-13"></path>
            <path d="M5.602421,8.25318303 L5.57394495,8.22954254 C5.48583038,8.15611373 5.37873178,8.1204739 5.27234955,8.1204739 C5.16346,8.1204739 5.05600321,8.15987472 4.9693214,8.23294534 C4.94890461,8.26500328 4.93009967,8.29813579 4.90484733,8.32822369 L4.45549885,8.86747769 C4.44923053,8.87517876 4.44135037,8.88073069 4.43472387,8.88789448 C4.40051679,8.96203967 4.38421917,9.04370683 4.39192024,9.12770222 C4.4033823,9.25360576 4.46266263,9.36697267 4.55883646,9.44702798 L4.58731251,9.47084757 L4.5876707,9.47120576 C4.68366543,9.55108198 4.80562889,9.58958733 4.93189062,9.57776708 C5.05761507,9.56630502 5.17116107,9.50702469 5.25139548,9.41085086 L5.33037622,9.31610979 C5.34864388,9.28691737 5.36619515,9.25736675 5.38840289,9.23068164 L5.71668339,8.8370316 C5.81948372,8.64414666 5.77685919,8.39860789 5.602421,8.25318303" id="Fill-16"></path>
        </g>
    </g>
</svg>