<?xml version="1.0" encoding="UTF-8"?>
<svg width="7px" height="12px" viewBox="0 0 7 12" version="1.1" xmlns="http://www.w3.org/2000/svg" xmlns:xlink="http://www.w3.org/1999/xlink">
    <!-- Generator: Sketch 48.2 (47327) - http://www.bohemiancoding.com/sketch -->
    <title>ic-Democracy</title>
    <desc>Created with Sketch.</desc>
    <defs></defs>
    <g id="Page-1" stroke="none" stroke-width="1" fill="none" fill-rule="evenodd">
        <g id="ic-Democracy" fill="#111111" fill-rule="nonzero">
            <path d="M0.779179,11.53248 L0.779179,9.472612 C0.802884,8.32725 0.432292,8.129994 0.332458,7.747371 C0.175576,7.147921 -0.052616,6.662567 0.010894,5.17553 L0.035407,4.599033 L0.332458,1.322337 C0.34516,1.020607 0.477671,0.900213 0.779179,0.913138 C1.081132,0.926063 1.160479,1.134976 1.147554,1.436706 L1.147554,3.758912 C1.394955,3.826223 1.518656,3.826223 1.518656,3.758912 C1.518656,3.260624 1.518656,2.284791 1.518656,0.831412 C1.531581,0.529459 1.774484,0.293314 2.076214,0.306239 C2.377945,0.319164 2.61243,0.611185 2.599505,0.913138 L2.599505,3.758912 C2.791375,3.865633 2.888024,3.865633 2.889451,3.758912 C2.897631,3.147184 2.930063,2.084591 2.986748,0.571131 C2.99945,0.269623 3.12224,-0.012497 3.423971,0.000428 C3.725701,0.013353 3.975016,0.269177 3.962091,0.571131 L3.881465,3.908886 C4.042343,3.980144 4.126044,3.980144 4.132567,3.908886 C4.18646,3.32018 4.249413,2.321597 4.321425,0.913138 C4.33435,0.611185 4.450869,0.401154 4.752599,0.414079 C5.054107,0.426781 5.298756,0.637315 5.285831,0.939046 C5.285831,0.939046 5.106665,4.355019 5.103322,4.375298 C5.11959,4.526832 5.168838,4.650956 5.285831,4.656081 C5.592464,4.669006 5.538795,4.346657 5.820915,3.513221 C6.186156,2.434211 6.86,2.837453 6.86,2.837453 C6.521055,4.373738 6.564732,4.902992 6.420998,5.646399 C6.282166,6.365294 6.022107,7.05611 5.419315,7.747371 C5.031789,8.191499 4.648937,9.221541 4.630887,9.675251 L4.630887,11.53248 L0.779179,11.53248 Z" id="Page-1"></path>
        </g>
    </g>
</svg>