<?xml version="1.0" encoding="UTF-8" standalone="no"?>
<svg xmlns="http://www.w3.org/2000/svg" version="1.1" width="442" height="114" viewBox="-0.02 -0.02 4.42 1.14">
<g transform="translate(-383.37358,-539.99032)" style="fill:#1a477d;fill-opacity:1;fill-rule:nonzero;stroke:none">
  <path
     d="M 0,0 -0.09,-0.236 0.09,-0.234 0,0 z m -0.091,0.221 0.181,0 0.336,-0.873 -0.176,0 -0.089,0.247 -0.31,0 -0.104,-0.247 -0.176,0 0.338,0.873"
     transform="matrix(1.25,0,0,-1.25,386.29608,540.27032)"/>
  <path
     d="m 0,0 0.172,0 0.373,-0.569 0,0.569 0.168,0 0,-0.872 -0.162,0 -0.379,0.581 0,-0.581 -0.169,0 L 0,0"
     transform="matrix(1.25,0,0,-1.25,386.86358,539.99407)"/>
  <path
     d="m 0,0 -0.107,0 0,0.267 0.107,0 c 0.074,0 0.133,-0.06 0.133,-0.134 C 0.133,0.06 0.074,0 0,0 z m 0.003,0.447 -0.273,0.003 0,-0.873 0.165,0 0,0.255 0.108,0 c 0.17,0 0.307,0.138 0.307,0.308 0,0.169 -0.137,0.307 -0.307,0.307"
     transform="matrix(1.25,0,0,-1.25,385.53858,540.55282)"/>
  <path
     d="m 0,0 0,-0.182 -0.306,0 c 0,0 -0.036,-0.003 -0.042,-0.019 -0.006,-0.015 -0.009,-0.033 0.016,-0.056 0.025,-0.024 0.279,-0.193 0.315,-0.237 0.036,-0.044 0.073,-0.122 0.058,-0.183 -0.017,-0.071 -0.068,-0.197 -0.264,-0.196 -0.195,0.001 -0.298,0 -0.298,0 l 0,0.178 0.341,-0.001 c 0,0 0.098,0.036 0.026,0.103 -0.059,0.056 -0.283,0.178 -0.332,0.256 -0.049,0.078 -0.056,0.218 0.022,0.276 C -0.433,-0.038 -0.39,0 -0.304,0 -0.25,0 0,0 0,0"
     transform="matrix(1.25,0,0,-1.25,385.01733,539.99407)"/>
  <path d="m 384.05733,540.76282 0.31319,0 0,-0.19158 -0.31319,0 0,0.19158 z"/>
  <path
     d="m 0,0 c -0.243,0 -0.434,0.191 -0.434,0.434 0,0.243 0.197,0.44 0.44,0.44 l 0.115,0 0,-0.181 -0.131,0 c -0.142,0 -0.257,-0.115 -0.257,-0.257 0,-0.142 0.115,-0.257 0.257,-0.257 l 0.13,0 L 0.12,0 0,0"
     transform="matrix(1.25,0,0,-1.25,383.91608,541.08657)"/>
  </g>
</svg>
