<?xml version="1.0" encoding="UTF-8"?>
<svg width="250px" height="204px" viewBox="0 0 250 204" version="1.1" xmlns="http://www.w3.org/2000/svg" xmlns:xlink="http://www.w3.org/1999/xlink">
    <!-- Generator: Sketch 48.2 (47327) - http://www.bohemiancoding.com/sketch -->
    <title>twitter_logo</title>
    <desc>Created with Sketch.</desc>
    <defs></defs>
    <g id="Page-1" stroke="none" stroke-width="1" fill="none" fill-rule="evenodd">
        <g id="twitter_logo" transform="translate(-7.000000, -15.000000)">
            <rect id="Rectangle-path" x="0" y="0" width="263" height="233"></rect>
            <path d="M85.62,218.13969 C179.96,218.13969 231.56,139.97969 231.56,72.1996903 C231.56,69.9796903 231.56,67.7696903 231.41,65.5696903 C241.448314,58.3087989 250.113555,49.3184843 257,39.0196903 C247.638791,43.167708 237.708293,45.8879768 227.54,47.0896903 C238.24744,40.6795109 246.261235,30.5974102 250.09,18.7196903 C240.021575,24.6942435 229.006461,28.9048105 217.52,31.1696903 C201.620828,14.2636331 176.357194,10.1258162 155.895493,21.0764896 C135.433792,32.027163 124.86275,55.3429476 130.11,77.9496903 C88.8689574,75.8821857 50.4447578,56.402923 24.4,24.3596903 C10.7862276,47.7961376 17.7398788,77.7782851 40.28,92.8296903 C32.117412,92.5877658 24.1327937,90.3858221 17,86.4096903 C17,86.6196903 17,86.8396903 17,87.0596903 C17.0066813,111.47562 34.2175149,132.505042 58.15,137.33969 C50.598696,139.399091 42.6758059,139.700133 34.99,138.21969 C41.7094793,159.113919 60.9657456,173.427529 82.91,173.83969 C64.7473504,188.11401 42.3105951,195.862968 19.21,195.83969 C15.1290357,195.831856 11.0520407,195.584765 7,195.09969 C30.4563595,210.152456 57.749134,218.13686 85.62,218.09969" id="Shape" fill="#1DA1F2" fill-rule="nonzero"></path>
        </g>
    </g>
</svg>